<svg width="24" height="24" viewBox="0 0 24 24" fill="none" xmlns="http://www.w3.org/2000/svg">
<path fill-rule="evenodd" clip-rule="evenodd" d="M21.546 5.10142C21.8272 5.38271 21.9852 5.76418 21.9852 6.16192C21.9852 6.55967 21.8272 6.94113 21.546 7.22242L10.303 18.4654C10.1544 18.614 9.97805 18.7319 9.7839 18.8124C9.58976 18.8928 9.38167 18.9342 9.17153 18.9342C8.96138 18.9342 8.75329 18.8928 8.55915 18.8124C8.365 18.7319 8.1886 18.614 8.04003 18.4654L2.45403 12.8804C2.31076 12.7421 2.19649 12.5765 2.11787 12.3935C2.03926 12.2105 1.99788 12.0137 1.99615 11.8145C1.99442 11.6154 2.03237 11.4178 2.10779 11.2335C2.18322 11.0491 2.29459 10.8817 2.43543 10.7408C2.57627 10.6 2.74375 10.4886 2.92809 10.4132C3.11244 10.3378 3.30996 10.2998 3.50913 10.3015C3.7083 10.3033 3.90513 10.3447 4.08813 10.4233C4.27114 10.5019 4.43666 10.6162 4.57503 10.7594L9.17103 15.3554L19.424 5.10142C19.5633 4.96203 19.7287 4.85146 19.9108 4.77602C20.0928 4.70057 20.288 4.66174 20.485 4.66174C20.6821 4.66174 20.8772 4.70057 21.0593 4.77602C21.2413 4.85146 21.4067 4.96203 21.546 5.10142Z" fill="#1857FE"/>
</svg>
